<?xml version="1.0" standalone="no"?>
<!DOCTYPE svg PUBLIC "-//W3C//DTD SVG 20010904//EN"
 "http://www.w3.org/TR/2001/REC-SVG-20010904/DTD/svg10.dtd">
<svg version="1.0" xmlns="http://www.w3.org/2000/svg"
 width="283.000000pt" height="120.000000pt" viewBox="0 0 283.000000 120.000000"
 preserveAspectRatio="xMidYMid meet">

<g transform="translate(0.000000,120.000000) scale(0.100000,-0.100000)"
fill="#000000" stroke="none">
<path d="M830 1040 c-41 -4 -155 -8 -252 -9 l-178 -1 0 -25 c0 -22 4 -25 35
-25 l35 0 2 -182 3 -183 123 -3 122 -3 0 186 c0 210 -6 198 86 170 61 -18 127
-73 156 -129 23 -43 31 -158 15 -203 l-8 -23 125 0 125 0 18 33 c26 47 24 168
-3 227 -43 92 -133 153 -251 170 -37 5 -70 9 -73 8 -3 -1 -39 -4 -80 -8z"/>
<path d="M1865 1040 c-38 -4 -150 -8 -247 -9 l-178 -1 0 -24 c0 -21 5 -25 38
-28 l37 -3 3 -183 2 -183 123 3 122 3 3 179 2 178 53 -4 c146 -12 267 -125
308 -288 l17 -65 133 0 134 0 -3 40 c-5 55 -35 146 -65 198 -83 140 -262 210
-482 187z"/>
<path d="M1077 510 c-42 -36 -46 -37 -42 -5 1 16 -3 25 -11 25 -10 0 -14 -16
-14 -61 0 -44 3 -60 13 -56 6 2 12 9 12 15 0 6 5 16 11 22 8 8 17 4 32 -15 12
-15 27 -25 33 -23 7 2 2 15 -14 33 l-25 29 25 33 c32 41 24 42 -20 3z"/>
<path d="M1898 529 c-30 -17 -22 -48 17 -65 46 -19 46 -37 0 -32 -36 4 -45
-14 -11 -20 36 -7 66 7 66 32 0 19 -8 27 -36 36 -40 13 -40 36 0 33 29 -2 35
11 10 21 -21 8 -26 7 -46 -5z"/>
<path d="M2670 527 c-18 -9 -26 -22 -28 -46 -5 -54 39 -85 92 -65 28 11 17 24
-14 18 -36 -8 -60 9 -60 43 0 27 35 46 62 32 10 -6 19 -5 23 0 3 6 -3 15 -14
20 -25 14 -30 14 -61 -2z"/>
<path d="M60 471 c0 -34 4 -61 10 -61 6 0 10 9 10 20 0 27 27 26 50 -2 10 -13
22 -20 26 -16 4 4 1 15 -6 24 -11 12 -11 17 -1 23 7 5 11 21 9 37 -3 27 -6 29
-50 32 l-48 3 0 -60z m75 18 c0 -8 -12 -15 -27 -17 -22 -3 -28 1 -28 16 0 10
3 21 6 25 10 10 49 -9 49 -24z"/>
<path d="M320 503 c-38 -83 -41 -93 -25 -93 8 0 15 7 15 15 0 22 59 20 76 -2
24 -34 24 -6 -1 50 -27 63 -45 71 -65 30z m34 -41 c-21 -5 -24 0 -17 27 l6 23
13 -23 c11 -20 10 -25 -2 -27z"/>
<path d="M540 470 c0 -67 17 -82 22 -19 l3 41 30 -41 c43 -58 55 -53 55 19 0
47 -3 60 -15 60 -11 0 -15 -11 -15 -37 l0 -38 -31 38 c-17 20 -35 37 -40 37
-5 0 -9 -27 -9 -60z"/>
<path d="M795 490 c14 -22 25 -49 25 -60 0 -11 5 -20 10 -20 6 0 10 10 10 23
0 12 9 36 20 52 22 34 25 45 10 45 -6 0 -16 -11 -22 -25 -6 -14 -14 -25 -18
-25 -4 0 -13 11 -20 25 -7 14 -19 25 -27 25 -9 0 -5 -12 12 -40z"/>
<path d="M1250 470 l0 -60 45 0 c25 0 45 5 45 10 0 6 -16 10 -35 10 -24 0 -35
5 -35 15 0 10 10 15 30 15 17 0 30 5 30 10 0 6 -13 10 -30 10 -19 0 -30 5 -30
14 0 18 22 26 49 19 12 -3 21 -1 21 6 0 6 -19 11 -45 11 l-45 0 0 -60z"/>
<path d="M1470 470 l0 -61 46 3 c37 2 51 9 67 29 17 24 18 30 6 55 -13 26 -20
29 -67 32 l-52 3 0 -61z m98 12 c5 -30 -14 -52 -44 -52 -21 0 -24 5 -24 41 0
39 1 40 33 37 25 -2 33 -8 35 -26z"/>
<path d="M2265 473 c-25 -56 -25 -84 -1 -50 17 22 65 22 82 0 7 -10 15 -15 19
-12 9 10 -47 119 -62 119 -7 0 -25 -25 -38 -57z m55 0 c0 -7 -9 -13 -20 -13
-17 0 -18 3 -8 25 8 19 14 22 20 13 4 -7 8 -19 8 -25z"/>
<path d="M2100 425 c0 -8 5 -15 10 -15 6 0 10 7 10 15 0 8 -4 15 -10 15 -5 0
-10 -7 -10 -15z"/>
<path d="M2490 425 c0 -8 5 -15 10 -15 6 0 10 7 10 15 0 8 -4 15 -10 15 -5 0
-10 -7 -10 -15z"/>
<path d="M470 200 l0 -130 -35 0 c-31 0 -35 -3 -35 -25 l0 -25 200 0 200 0 0
24 c0 21 -5 25 -37 28 l-38 3 -3 128 -3 127 -124 0 -125 0 0 -130z"/>
<path d="M870 324 c0 -4 35 -74 77 -155 l77 -149 183 0 183 0 0 25 c0 22 -4
25 -38 25 -37 0 -39 2 -123 128 l-86 127 -136 3 c-76 1 -137 0 -137 -4z"/>
<path d="M1518 203 l-3 -128 -37 -3 c-33 -3 -38 -7 -38 -28 l0 -24 250 0 c274
0 360 11 458 57 73 34 162 120 201 193 l32 61 -126 -3 -127 -3 -19 -51 c-46
-122 -170 -204 -309 -204 l-30 0 0 130 0 130 -125 0 -124 0 -3 -127z"/>
</g>
</svg>
